<svg id="svg" xmlns="http://www.w3.org/2000/svg" xmlns:xlink="http://www.w3.org/1999/xlink" width="400" height="400" viewBox="0, 0, 400,400"><g id="svgg"><path id="path0" d="M36.400 1.668 C 20.877 3.873,9.041 15.107,4.897 31.567 C 4.100 34.733,3.593 357.468,4.374 364.800 C 6.306 382.945,18.445 396.223,35.800 399.173 C 37.941 399.536,76.919 399.619,201.400 399.524 L 364.200 399.400 367.718 398.296 C 383.169 393.450,392.998 381.586,394.807 365.600 C 395.612 358.487,395.124 34.416,394.304 31.200 C 390.169 14.993,379.222 4.570,363.447 1.819 C 359.309 1.098,41.450 0.951,36.400 1.668 M357.489 29.902 C 360.138 31.318,361.874 33.063,363.084 35.527 L 364.200 37.800 364.302 199.791 C 364.391 341.767,364.331 362.033,363.812 363.816 C 362.648 367.822,359.432 370.929,355.165 372.169 C 353.180 372.746,338.730 372.796,198.789 372.703 L 44.600 372.600 42.365 371.552 C 39.525 370.220,37.380 368.075,36.048 365.235 L 35.000 363.000 35.000 200.800 C 35.000 42.231,35.017 38.556,35.762 36.623 C 36.975 33.478,40.489 30.108,43.506 29.197 C 44.108 29.015,114.620 28.897,200.200 28.933 L 355.800 29.000 357.489 29.902 " stroke="none" fill="#fc9c04" fill-rule="evenodd"></path><path id="path1" d="M186.000 66.613 C 184.350 66.902,182.055 67.153,180.899 67.170 C 178.356 67.206,172.210 68.364,164.400 70.276 C 120.487 81.029,84.379 115.436,71.078 159.200 C 68.837 166.573,66.405 177.993,66.393 181.200 C 66.389 182.190,66.120 184.620,65.795 186.600 C 65.014 191.352,65.017 203.718,65.800 208.800 C 66.122 210.890,66.389 213.365,66.393 214.301 C 66.440 225.387,75.292 250.882,84.222 265.646 C 103.303 297.195,138.170 321.523,171.800 326.752 C 173.340 326.991,175.229 327.370,175.997 327.594 C 176.766 327.817,178.252 328.000,179.300 328.000 C 180.348 328.000,183.049 328.290,185.303 328.644 C 190.862 329.518,202.803 329.521,208.297 328.650 C 210.551 328.292,213.252 328.000,214.300 328.000 C 215.348 328.000,216.834 327.817,217.603 327.594 C 218.371 327.370,220.260 326.991,221.800 326.752 C 255.435 321.522,290.527 297.022,309.390 265.600 C 318.545 250.350,327.165 225.433,327.207 214.101 C 327.211 213.055,327.480 210.580,327.805 208.600 C 328.583 203.866,328.580 191.863,327.800 186.800 C 327.478 184.710,327.211 182.190,327.207 181.200 C 327.195 178.014,324.677 166.147,322.540 159.200 C 310.126 118.854,279.654 87.296,239.600 73.303 C 232.047 70.665,216.942 67.208,212.901 67.193 C 211.855 67.189,209.380 66.920,207.400 66.595 C 202.908 65.856,190.248 65.867,186.000 66.613 M210.427 81.950 C 253.690 86.451,293.066 118.357,306.997 160.200 C 329.679 228.332,287.538 299.580,217.000 312.358 C 198.700 315.673,181.010 314.555,162.400 308.908 C 119.073 295.760,85.459 255.439,81.180 211.483 C 79.924 198.577,79.924 197.310,81.167 184.000 C 86.014 132.092,132.164 86.363,184.167 81.939 C 186.825 81.713,189.090 81.436,189.200 81.325 C 189.508 81.012,206.114 81.501,210.427 81.950 M195.066 101.700 C 194.213 102.555,182.328 117.264,177.573 123.350 C 176.348 124.917,173.599 128.360,171.464 131.000 C 165.548 138.316,165.671 138.800,173.458 138.800 C 181.686 138.800,181.200 137.735,181.200 155.775 C 181.200 169.098,181.244 169.966,181.965 170.856 L 182.729 171.800 196.800 171.800 L 210.871 171.800 211.635 170.856 C 212.356 169.966,212.400 169.094,212.405 155.856 C 212.413 137.510,211.831 138.800,220.104 138.800 C 228.122 138.800,228.164 138.460,221.218 129.800 C 218.571 126.500,215.253 122.360,213.845 120.600 C 212.436 118.840,210.456 116.369,209.444 115.108 C 208.432 113.848,205.764 110.518,203.515 107.708 C 198.539 101.492,197.866 100.800,196.800 100.800 C 196.340 100.800,195.560 101.205,195.066 101.700 M132.229 168.629 C 131.725 169.132,131.600 170.241,131.600 174.210 C 131.600 182.384,132.991 181.752,114.467 182.000 C 100.272 182.190,99.507 182.238,98.967 182.976 C 98.129 184.124,98.129 211.076,98.967 212.224 C 99.507 212.962,100.272 213.010,114.557 213.200 C 133.011 213.446,131.308 212.695,131.600 220.710 C 131.809 226.452,131.989 227.200,133.159 227.200 C 133.738 227.200,145.761 217.965,152.600 212.267 C 153.480 211.534,157.390 208.385,161.289 205.270 C 168.926 199.168,169.911 198.128,169.242 196.878 C 168.912 196.261,160.308 189.113,151.840 182.420 C 151.158 181.881,147.180 178.722,143.000 175.401 C 132.670 167.192,133.281 167.576,132.229 168.629 M259.189 168.683 C 258.016 169.492,243.330 181.126,239.600 184.200 C 238.170 185.379,234.248 188.541,230.884 191.228 C 222.185 198.175,222.075 197.091,232.311 205.270 C 236.210 208.385,240.120 211.532,241.000 212.263 C 248.316 218.340,259.820 227.200,260.394 227.200 C 261.687 227.200,261.933 226.244,262.067 220.709 C 262.261 212.697,260.569 213.446,279.043 213.200 C 293.328 213.010,294.093 212.962,294.633 212.224 C 295.471 211.076,295.471 184.124,294.633 182.976 C 294.093 182.238,293.328 182.190,279.133 182.000 C 270.920 181.890,263.898 181.651,263.528 181.468 C 262.415 180.918,262.000 178.920,262.000 174.114 C 262.000 168.163,261.458 167.116,259.189 168.683 M181.823 224.489 C 181.287 225.254,181.200 227.405,181.200 239.907 L 181.200 254.436 180.218 255.418 C 179.287 256.349,178.980 256.402,174.318 256.440 C 165.481 256.512,165.391 256.790,171.686 264.605 C 174.169 267.688,176.830 271.042,177.600 272.059 C 179.826 274.999,193.608 292.087,194.731 293.300 C 197.029 295.782,196.956 295.841,207.244 283.060 C 211.290 278.033,215.320 272.971,216.200 271.812 C 217.080 270.653,219.739 267.296,222.110 264.352 C 228.176 256.818,228.066 256.511,219.282 256.440 C 214.620 256.402,214.313 256.349,213.382 255.418 L 212.400 254.436 212.400 239.907 C 212.400 227.405,212.313 225.254,211.777 224.489 L 211.155 223.600 196.800 223.600 L 182.445 223.600 181.823 224.489 " stroke="none" fill="#28a5dc" fill-rule="evenodd"></path><path id="path2" d="M42.122 31.999 C 39.829 33.315,37.936 35.725,37.247 38.208 C 36.927 39.358,36.804 84.442,36.802 200.627 C 36.800 381.711,36.464 364.102,39.987 367.626 C 43.500 371.138,26.751 370.817,200.609 370.702 L 355.000 370.600 356.627 369.729 C 358.816 368.557,360.924 366.146,361.843 363.761 C 362.581 361.849,362.600 357.752,362.600 200.400 L 362.600 39.000 361.652 36.903 C 360.615 34.609,358.270 32.239,356.169 31.361 C 355.024 30.883,331.889 30.801,199.513 30.804 L 44.200 30.808 42.122 31.999 M211.400 64.949 C 274.240 73.147,323.058 121.406,329.202 181.400 C 329.427 183.600,329.783 186.660,329.993 188.200 C 330.467 191.687,330.483 203.251,330.018 207.000 C 329.827 208.540,329.471 211.600,329.227 213.800 C 323.354 266.844,283.069 313.221,231.215 326.636 C 225.789 328.039,215.765 330.000,214.014 330.000 C 213.198 330.000,210.746 330.269,208.565 330.598 C 203.279 331.394,190.321 331.394,185.035 330.598 C 182.854 330.269,180.394 330.000,179.567 330.000 C 174.442 330.000,157.648 325.681,147.878 321.851 C 102.855 304.200,69.267 260.886,64.397 214.200 C 64.167 212.000,63.812 208.850,63.607 207.200 C 63.127 203.332,63.127 191.868,63.607 188.000 C 63.812 186.350,64.173 183.200,64.409 181.000 C 69.092 137.371,98.650 96.531,139.639 77.053 C 148.615 72.787,162.223 68.194,169.400 67.006 C 170.280 66.860,172.260 66.495,173.800 66.193 C 175.340 65.892,179.300 65.352,182.600 64.993 C 185.900 64.634,188.870 64.274,189.200 64.193 C 190.684 63.827,207.077 64.385,211.400 64.949 M185.000 83.804 C 99.954 92.052,54.089 189.316,101.444 261.000 C 148.926 332.877,257.261 327.746,297.712 251.705 C 340.800 170.707,276.505 74.930,185.000 83.804 M198.143 98.778 C 198.711 98.994,201.799 102.475,205.329 106.878 C 208.734 111.125,212.538 115.860,213.783 117.400 C 215.028 118.940,217.112 121.550,218.415 123.200 C 219.718 124.850,222.491 128.353,224.578 130.985 C 230.980 139.055,230.307 140.680,220.529 140.760 C 213.773 140.815,214.400 139.251,214.400 156.041 C 214.400 175.743,216.282 173.800,197.200 173.800 C 177.167 173.800,179.204 175.777,179.201 156.329 C 179.200 139.208,179.833 140.815,173.071 140.760 C 167.370 140.713,166.536 140.535,165.494 139.138 C 164.038 137.189,165.020 135.659,177.833 119.920 C 179.032 118.446,182.168 114.522,184.800 111.200 C 195.327 97.913,195.484 97.767,198.143 98.778 M133.574 165.871 C 134.407 166.094,142.109 172.076,154.600 182.204 C 156.360 183.630,160.633 187.060,164.096 189.826 C 174.145 197.851,174.155 197.457,163.718 205.808 C 160.463 208.413,157.015 211.186,156.056 211.972 C 155.097 212.757,152.723 214.660,150.781 216.200 C 148.839 217.740,144.385 221.285,140.883 224.078 C 131.066 231.908,129.600 231.624,129.600 221.896 C 129.600 214.719,131.305 215.439,113.733 215.200 C 102.888 215.053,98.766 214.866,98.114 214.493 C 96.532 213.589,96.355 211.645,96.481 196.595 L 96.600 182.417 97.708 181.309 L 98.817 180.200 113.641 180.000 C 131.350 179.761,129.600 180.519,129.600 173.093 L 129.600 167.938 130.769 166.769 C 132.031 165.507,132.114 165.481,133.574 165.871 M262.831 166.769 L 264.000 167.938 264.000 173.093 C 264.000 180.519,262.250 179.761,279.959 180.000 L 294.783 180.200 295.892 181.309 L 297.000 182.418 297.000 197.348 C 297.000 217.313,299.038 215.200,279.781 215.200 C 262.459 215.200,264.000 214.554,264.000 221.820 C 264.000 231.606,262.425 231.936,252.800 224.166 C 249.390 221.413,244.800 217.737,242.600 215.996 C 240.400 214.256,237.880 212.246,237.000 211.530 C 236.120 210.815,232.827 208.169,229.682 205.650 C 219.476 197.479,219.480 197.830,229.504 189.826 C 232.967 187.060,237.240 183.636,239.000 182.215 C 240.760 180.795,243.370 178.704,244.800 177.570 C 246.230 176.436,249.956 173.456,253.079 170.949 C 260.404 165.069,260.912 164.851,262.831 166.769 M212.376 222.188 C 214.277 223.170,214.400 224.207,214.400 239.183 C 214.400 256.213,213.648 254.536,221.404 254.800 C 226.971 254.990,227.312 255.049,228.037 255.944 C 229.676 257.972,229.574 258.156,220.546 269.413 C 217.056 273.765,213.760 277.882,213.223 278.563 C 200.053 295.242,198.650 296.800,196.800 296.800 C 194.941 296.800,193.645 295.359,180.383 278.554 C 179.842 277.869,176.471 273.681,172.890 269.248 C 162.026 255.795,161.995 255.151,172.199 254.795 C 179.953 254.525,179.200 256.204,179.200 239.183 C 179.200 224.335,179.331 223.191,181.142 222.207 C 182.726 221.346,210.716 221.329,212.376 222.188 " stroke="none" fill="#fbfbfc" fill-rule="evenodd"></path><path id="path3" d="M189.200 64.193 C 188.870 64.274,185.900 64.634,182.600 64.993 C 179.300 65.352,175.340 65.892,173.800 66.193 C 172.260 66.495,170.280 66.860,169.400 67.006 C 162.223 68.194,148.615 72.787,139.639 77.053 C 98.650 96.531,69.092 137.371,64.409 181.000 C 64.173 183.200,63.812 186.350,63.607 188.000 C 63.127 191.868,63.127 203.332,63.607 207.200 C 63.812 208.850,64.167 212.000,64.397 214.200 C 69.267 260.886,102.855 304.200,147.878 321.851 C 157.648 325.681,174.442 330.000,179.567 330.000 C 180.394 330.000,182.854 330.269,185.035 330.598 C 190.321 331.394,203.279 331.394,208.565 330.598 C 210.746 330.269,213.198 330.000,214.014 330.000 C 215.765 330.000,225.789 328.039,231.215 326.636 C 283.069 313.221,323.354 266.844,329.227 213.800 C 329.471 211.600,329.827 208.540,330.018 207.000 C 330.483 203.251,330.467 191.687,329.993 188.200 C 329.783 186.660,329.427 183.600,329.202 181.400 C 323.412 124.858,277.215 76.137,220.000 66.233 C 210.762 64.634,192.355 63.415,189.200 64.193 M207.400 66.595 C 209.380 66.920,211.855 67.189,212.901 67.193 C 216.942 67.208,232.047 70.665,239.600 73.303 C 279.654 87.296,310.126 118.854,322.540 159.200 C 324.677 166.147,327.195 178.014,327.207 181.200 C 327.211 182.190,327.478 184.710,327.800 186.800 C 328.580 191.863,328.583 203.866,327.805 208.600 C 327.480 210.580,327.211 213.055,327.207 214.101 C 327.165 225.433,318.545 250.350,309.390 265.600 C 290.527 297.022,255.435 321.522,221.800 326.752 C 220.260 326.991,218.371 327.370,217.603 327.594 C 216.834 327.817,215.348 328.000,214.300 328.000 C 213.252 328.000,210.551 328.292,208.297 328.650 C 202.803 329.521,190.862 329.518,185.303 328.644 C 183.049 328.290,180.348 328.000,179.300 328.000 C 178.252 328.000,176.766 327.817,175.997 327.594 C 175.229 327.370,173.340 326.991,171.800 326.752 C 138.170 321.523,103.303 297.195,84.222 265.646 C 75.292 250.882,66.440 225.387,66.393 214.301 C 66.389 213.365,66.122 210.890,65.800 208.800 C 65.017 203.718,65.014 191.352,65.795 186.600 C 66.120 184.620,66.389 182.190,66.393 181.200 C 66.405 177.993,68.837 166.573,71.078 159.200 C 84.379 115.436,120.487 81.029,164.400 70.276 C 172.210 68.364,178.356 67.206,180.899 67.170 C 182.055 67.153,184.350 66.902,186.000 66.613 C 190.248 65.867,202.908 65.856,207.400 66.595 M189.200 81.325 C 189.090 81.436,186.825 81.713,184.167 81.939 C 132.164 86.363,86.014 132.092,81.167 184.000 C 79.924 197.310,79.924 198.577,81.180 211.483 C 85.724 258.163,122.520 299.549,169.600 310.932 C 213.517 321.551,260.968 305.040,288.388 269.600 C 341.695 200.702,304.764 100.994,219.426 83.413 C 211.997 81.883,190.137 80.372,189.200 81.325 M207.800 83.768 C 297.372 92.097,342.441 197.214,286.923 268.313 C 234.390 335.590,127.586 322.847,92.561 245.124 C 56.362 164.796,120.057 75.610,207.800 83.768 M195.200 98.982 C 194.136 99.566,192.424 101.577,184.800 111.200 C 182.168 114.522,179.032 118.446,177.833 119.920 C 165.020 135.659,164.038 137.189,165.494 139.138 C 166.536 140.535,167.370 140.713,173.071 140.760 C 179.833 140.815,179.200 139.208,179.201 156.329 C 179.204 175.777,177.167 173.800,197.200 173.800 C 216.282 173.800,214.400 175.743,214.400 156.041 C 214.400 139.251,213.773 140.815,220.529 140.760 C 230.307 140.680,230.980 139.055,224.578 130.985 C 222.491 128.353,219.718 124.850,218.415 123.200 C 217.112 121.550,215.028 118.940,213.783 117.400 C 212.538 115.860,208.734 111.125,205.329 106.878 C 198.476 98.330,197.611 97.656,195.200 98.982 M198.531 101.700 C 199.023 102.195,201.266 104.899,203.515 107.708 C 205.764 110.518,208.432 113.848,209.444 115.108 C 210.456 116.369,212.436 118.840,213.845 120.600 C 215.253 122.360,218.571 126.500,221.218 129.800 C 228.164 138.460,228.122 138.800,220.104 138.800 C 211.831 138.800,212.413 137.510,212.405 155.856 C 212.400 169.094,212.356 169.966,211.635 170.856 L 210.871 171.800 196.800 171.800 L 182.729 171.800 181.965 170.856 C 181.244 169.966,181.200 169.098,181.200 155.775 C 181.200 137.735,181.686 138.800,173.458 138.800 C 165.671 138.800,165.548 138.316,171.464 131.000 C 173.599 128.360,176.348 124.917,177.573 123.350 C 190.524 106.775,195.618 100.800,196.800 100.800 C 197.260 100.800,198.039 101.205,198.531 101.700 M130.769 166.769 L 129.600 167.938 129.600 173.093 C 129.600 180.519,131.350 179.761,113.641 180.000 L 98.817 180.200 97.708 181.309 L 96.600 182.417 96.481 196.595 C 96.355 211.645,96.532 213.589,98.114 214.493 C 98.766 214.866,102.888 215.053,113.733 215.200 C 131.305 215.439,129.600 214.719,129.600 221.896 C 129.600 231.624,131.066 231.908,140.883 224.078 C 144.385 221.285,148.839 217.740,150.781 216.200 C 152.723 214.660,155.097 212.757,156.056 211.972 C 157.015 211.186,160.463 208.413,163.718 205.808 C 174.155 197.457,174.145 197.851,164.096 189.826 C 160.633 187.060,156.360 183.630,154.600 182.204 C 132.897 164.608,132.917 164.621,130.769 166.769 M259.679 166.020 C 259.172 166.223,256.202 168.441,253.079 170.949 C 249.956 173.456,246.230 176.436,244.800 177.570 C 243.370 178.704,240.760 180.795,239.000 182.215 C 237.240 183.636,232.967 187.060,229.504 189.826 C 219.480 197.830,219.476 197.479,229.682 205.650 C 232.827 208.169,236.120 210.815,237.000 211.530 C 237.880 212.246,240.400 214.256,242.600 215.996 C 244.800 217.737,249.390 221.413,252.800 224.166 C 262.425 231.936,264.000 231.606,264.000 221.820 C 264.000 214.554,262.459 215.200,279.781 215.200 C 299.038 215.200,297.000 217.313,297.000 197.348 L 297.000 182.418 295.892 181.309 L 294.783 180.200 279.959 180.000 C 262.250 179.761,264.000 180.519,264.000 173.093 L 264.000 167.938 262.831 166.769 C 261.593 165.531,261.156 165.428,259.679 166.020 M134.411 168.681 C 134.955 169.055,138.820 172.079,143.000 175.401 C 147.180 178.722,151.158 181.881,151.840 182.420 C 160.308 189.113,168.912 196.261,169.242 196.878 C 169.911 198.128,168.926 199.168,161.289 205.270 C 157.390 208.385,153.480 211.534,152.600 212.267 C 145.761 217.965,133.738 227.200,133.159 227.200 C 131.989 227.200,131.809 226.452,131.600 220.710 C 131.308 212.695,133.011 213.446,114.557 213.200 C 100.272 213.010,99.507 212.962,98.967 212.224 C 98.129 211.076,98.129 184.124,98.967 182.976 C 99.507 182.238,100.272 182.190,114.467 182.000 C 132.991 181.752,131.600 182.384,131.600 174.210 C 131.600 168.177,132.139 167.117,134.411 168.681 M261.586 168.774 C 261.814 169.199,262.000 171.602,262.000 174.114 C 262.000 178.920,262.415 180.918,263.528 181.468 C 263.898 181.651,270.920 181.890,279.133 182.000 C 293.328 182.190,294.093 182.238,294.633 182.976 C 295.471 184.124,295.471 211.076,294.633 212.224 C 294.093 212.962,293.328 213.010,279.043 213.200 C 260.569 213.446,262.261 212.697,262.067 220.709 C 261.933 226.244,261.687 227.200,260.394 227.200 C 259.820 227.200,248.316 218.340,241.000 212.263 C 240.120 211.532,236.210 208.385,232.311 205.270 C 222.075 197.091,222.185 198.175,230.884 191.228 C 234.248 188.541,238.170 185.379,239.600 184.200 C 243.330 181.126,258.016 169.492,259.189 168.683 C 260.471 167.798,261.076 167.821,261.586 168.774 M181.142 222.207 C 179.331 223.191,179.200 224.335,179.200 239.183 C 179.200 256.204,179.953 254.525,172.199 254.795 C 161.995 255.151,162.026 255.795,172.890 269.248 C 176.471 273.681,179.842 277.869,180.383 278.554 C 193.645 295.359,194.941 296.800,196.800 296.800 C 198.650 296.800,200.053 295.242,213.223 278.563 C 213.760 277.882,217.056 273.765,220.546 269.413 C 229.574 258.156,229.676 257.972,228.037 255.944 C 227.312 255.049,226.971 254.990,221.404 254.800 C 213.648 254.536,214.400 256.213,214.400 239.183 C 214.400 224.207,214.277 223.170,212.376 222.188 C 210.716 221.329,182.726 221.346,181.142 222.207 M211.777 224.489 C 212.313 225.254,212.400 227.405,212.400 239.907 L 212.400 254.436 213.382 255.418 C 214.313 256.349,214.620 256.402,219.282 256.440 C 228.066 256.511,228.176 256.818,222.110 264.352 C 219.739 267.296,217.080 270.653,216.200 271.812 C 213.794 274.982,200.036 292.039,198.869 293.300 C 196.570 295.783,196.641 295.840,186.356 283.054 C 182.310 278.023,178.370 273.075,177.600 272.059 C 176.830 271.042,174.169 267.688,171.686 264.605 C 165.391 256.790,165.481 256.512,174.318 256.440 C 178.980 256.402,179.287 256.349,180.218 255.418 L 181.200 254.436 181.200 239.907 C 181.200 227.405,181.287 225.254,181.823 224.489 L 182.445 223.600 196.800 223.600 L 211.155 223.600 211.777 224.489 " stroke="none" fill="#a4d9f0" fill-rule="evenodd"></path><path id="path4" d="M43.506 29.197 C 40.489 30.108,36.975 33.478,35.762 36.623 C 35.017 38.556,35.000 42.231,35.000 200.800 L 35.000 363.000 36.048 365.235 C 37.380 368.075,39.525 370.220,42.365 371.552 L 44.600 372.600 198.789 372.703 C 338.730 372.796,353.180 372.746,355.165 372.169 C 359.432 370.929,362.648 367.822,363.812 363.816 C 364.331 362.033,364.391 341.767,364.302 199.791 L 364.200 37.800 363.084 35.527 C 361.874 33.063,360.138 31.318,357.489 29.902 L 355.800 29.000 200.200 28.933 C 114.620 28.897,44.108 29.015,43.506 29.197 M356.169 31.361 C 358.270 32.239,360.615 34.609,361.652 36.903 L 362.600 39.000 362.600 200.400 C 362.600 357.752,362.581 361.849,361.843 363.761 C 360.924 366.146,358.816 368.557,356.627 369.729 L 355.000 370.600 200.609 370.702 C 26.751 370.817,43.500 371.138,39.987 367.626 C 36.464 364.102,36.800 381.711,36.802 200.627 C 36.804 84.442,36.927 39.358,37.247 38.208 C 37.936 35.725,39.829 33.315,42.122 31.999 L 44.200 30.808 199.513 30.804 C 331.889 30.801,355.024 30.883,356.169 31.361 " stroke="none" fill="#fce4bc" fill-rule="evenodd"></path></g></svg>